<svg width="131" height="30" viewBox="0 0 131 30" fill="none" xmlns="http://www.w3.org/2000/svg">
<g clip-path="url(#clip0_754_6801)">
<path d="M45.799 15.1515V20.9821C45.799 21.104 45.751 21.221 45.6653 21.3076C45.5797 21.3942 45.4634 21.4433 45.3417 21.4444H42.7229C42.4569 21.4444 42.2657 21.3695 42.2657 21.0821C42.2657 20.9572 42.0911 20.9946 41.929 21.0821C41.1181 21.4492 40.2373 21.6354 39.3476 21.6277C38.3834 21.6285 37.4312 21.4128 36.5612 20.9964C35.6912 20.5801 34.9253 19.9736 34.3201 19.2216C33.7148 18.4696 33.2854 17.5913 33.0636 16.6511C32.8417 15.711 32.833 14.733 33.0381 13.7891C33.2432 12.8452 33.6569 11.9593 34.2487 11.1966C34.8405 10.434 35.5954 9.8139 36.4579 9.38205C37.3204 8.95019 38.2685 8.71752 39.2326 8.70115C40.1967 8.68478 41.1521 8.88513 42.0287 9.28746C42.1077 9.32494 42.2698 9.3416 42.2698 9.22499C42.2762 9.11892 42.3228 9.0193 42.4001 8.94652C42.4773 8.87374 42.5795 8.83331 42.6855 8.8335H45.3417C45.4641 8.8335 45.5815 8.8822 45.668 8.9689C45.7545 9.05559 45.8032 9.17318 45.8032 9.29579V15.1473M42.1867 15.1473C42.1875 14.5853 42.022 14.0358 41.7109 13.5681C41.3999 13.1005 40.9575 12.7358 40.4395 12.5202C39.9216 12.3045 39.3514 12.2477 38.8012 12.3568C38.251 12.466 37.7455 12.7361 37.3486 13.1332C36.9517 13.5303 36.6813 14.0364 36.5715 14.5875C36.4618 15.1386 36.5177 15.7099 36.7322 16.2291C36.9466 16.7484 37.31 17.1922 37.7763 17.5045C38.2426 17.8168 38.7909 17.9835 39.3517 17.9835C40.1026 17.9824 40.8224 17.6834 41.3537 17.1518C41.885 16.6203 42.1845 15.8996 42.1867 15.1473Z" fill="#DF0000"/>
<path d="M56.1496 8.81683H58.8682C58.9288 8.81683 58.9888 8.82879 59.0448 8.85202C59.1008 8.87526 59.1516 8.90931 59.1945 8.95224C59.2373 8.99516 59.2713 9.04613 59.2945 9.10221C59.3177 9.1583 59.3296 9.21842 59.3296 9.27912V21.5652C59.3296 24.897 56.4198 27.7249 52.9613 27.7249C51.2651 27.7206 49.6354 27.063 48.4096 25.8883C48.3608 25.8449 48.3218 25.7916 48.2951 25.7321C48.2684 25.6725 48.2545 25.6079 48.2545 25.5426C48.2545 25.4773 48.2684 25.4127 48.2951 25.3531C48.3218 25.2935 48.3608 25.2403 48.4096 25.1969L50.488 23.4269C50.5696 23.3584 50.6726 23.3209 50.779 23.3209C50.8854 23.3209 50.9884 23.3584 51.07 23.4269C51.6012 23.8603 52.2638 24.0997 52.9489 24.1057C54.4121 24.1057 55.6965 22.8563 55.6965 21.5735C55.6965 21.2654 55.4554 21.0529 55.3349 21.1071C54.3461 21.5205 53.2701 21.6808 52.2041 21.5733C51.1381 21.4658 50.1155 21.094 49.2288 20.4914C48.3421 19.8889 47.6191 19.0745 47.1252 18.122C46.6312 17.1694 46.3819 16.1085 46.3996 15.0352C46.4173 13.9619 46.7015 12.9099 47.2266 11.9742C47.7517 11.0385 48.5011 10.2485 49.4072 9.67565C50.3133 9.10278 51.3476 8.76503 52.4166 8.6929C53.4856 8.62076 54.5557 8.81651 55.5303 9.26247C55.5843 9.28745 55.6965 9.26247 55.6965 9.21249C55.704 9.1027 55.7545 9.00034 55.8371 8.92777C55.9197 8.85519 56.0275 8.81831 56.1372 8.82516M55.7132 15.1306C55.7132 14.5689 55.5469 14.0197 55.2354 13.5526C54.9239 13.0855 54.4811 12.7215 53.9631 12.5065C53.4451 12.2915 52.8751 12.2352 52.3251 12.3448C51.7752 12.4544 51.27 12.725 50.8736 13.1222C50.4771 13.5194 50.2071 14.0255 50.0977 14.5765C49.9883 15.1275 50.0445 15.6986 50.259 16.2176C50.4736 16.7366 50.837 17.1802 51.3032 17.4923C51.7694 17.8044 52.3175 17.971 52.8782 17.971C53.6301 17.971 54.3512 17.6718 54.8828 17.1391C55.4145 16.6064 55.7132 15.884 55.7132 15.1306Z" fill="#DF0000"/>
<path d="M67.4645 9.20831V11.9279C67.4634 11.9937 67.4483 12.0586 67.4203 12.1182C67.3923 12.1777 67.3521 12.2307 67.3022 12.2736C67.2524 12.3165 67.194 12.3483 67.131 12.3669C67.068 12.3856 67.0017 12.3907 66.9366 12.3819C66.8248 12.3687 66.7124 12.3618 66.5999 12.361C65.8484 12.3621 65.1279 12.6618 64.5965 13.1942C64.0651 13.7266 63.766 14.4484 63.7649 15.2014V20.9738C63.7638 21.0957 63.7147 21.2122 63.6283 21.298C63.5419 21.3838 63.4252 21.4319 63.3035 21.4319H60.7013C60.5801 21.4319 60.4638 21.3837 60.378 21.2977C60.2923 21.2118 60.2441 21.0953 60.2441 20.9738V9.26661C60.2441 9.14472 60.2921 9.02777 60.3778 8.94119C60.4634 8.85461 60.5797 8.80542 60.7013 8.80432H63.2412C63.3077 8.79923 63.3746 8.80757 63.4378 8.82884C63.5011 8.85011 63.5595 8.88388 63.6095 8.92815C63.6595 8.97242 63.7001 9.02629 63.7289 9.08658C63.7578 9.14686 63.7743 9.21233 63.7774 9.27911C63.7774 9.40821 63.9478 9.3624 64.0725 9.3041C64.8924 8.93095 65.7825 8.73782 66.683 8.73769H67.0197C67.1385 8.744 67.2505 8.79523 67.333 8.88103C67.4156 8.96683 67.4626 9.08082 67.4645 9.19998V9.20831Z" fill="#DF0000"/>
<path d="M80.5336 15.114C80.5336 16.3924 80.1552 17.6421 79.4463 18.705C78.7374 19.768 77.7299 20.5965 76.551 21.0857C75.3722 21.5749 74.075 21.7029 72.8236 21.4535C71.5721 21.2041 70.4226 20.5885 69.5203 19.6845C68.6181 18.7806 68.0036 17.6288 67.7547 16.375C67.5058 15.1212 67.6335 13.8215 68.1218 12.6404C68.6101 11.4593 69.437 10.4498 70.4979 9.73959C71.5589 9.02934 72.8062 8.65025 74.0822 8.65025C75.7925 8.65246 77.4322 9.33416 78.6416 10.5459C79.851 11.7576 80.5314 13.4004 80.5336 15.114ZM76.9171 15.114C76.9171 14.5522 76.7509 14.0031 76.4394 13.536C76.1278 13.0689 75.6851 12.7048 75.1671 12.4898C74.649 12.2748 74.079 12.2186 73.5291 12.3282C72.9792 12.4378 72.474 12.7083 72.0775 13.1055C71.6811 13.5028 71.4111 14.0089 71.3017 14.5599C71.1923 15.1108 71.2484 15.6819 71.463 16.201C71.6776 16.72 72.0409 17.1636 72.5071 17.4757C72.9733 17.7878 73.5215 17.9544 74.0822 17.9544C74.8333 17.9533 75.5533 17.6535 76.0841 17.121C76.6149 16.5884 76.913 15.8666 76.913 15.114" fill="#DF0000"/>
<path d="M87.355 21.611C86.444 21.613 85.5435 21.4169 84.7154 21.0363C84.6074 20.9863 84.4785 21.0363 84.4785 21.1071C84.4785 21.3111 84.333 21.4444 84.0919 21.4444H81.4066C81.2842 21.4444 81.1669 21.3957 81.0803 21.309C80.9938 21.2223 80.9452 21.1047 80.9452 20.9821V3.80242C80.9429 3.74032 80.9532 3.67841 80.9754 3.62039C80.9976 3.56236 81.0312 3.50942 81.0743 3.46471C81.1174 3.42 81.169 3.38445 81.2261 3.36018C81.2832 3.33592 81.3446 3.32343 81.4066 3.32347H84.0213C84.1429 3.32457 84.2592 3.37376 84.3448 3.46034C84.4305 3.54691 84.4785 3.66387 84.4785 3.78576V8.66688C84.4799 8.74107 84.4993 8.81381 84.5349 8.87884C84.5706 8.94388 84.6215 8.99927 84.6832 9.04024C84.745 9.08121 84.8157 9.10654 84.8894 9.11405C84.9631 9.12156 85.0375 9.11103 85.1062 9.08336C86.1854 8.67554 87.3545 8.56761 88.4899 8.771C90.0742 9.05928 91.4938 9.9304 92.4701 11.2134C93.4464 12.4964 93.9089 14.0986 93.7667 15.7057C93.6246 17.3127 92.8882 18.8085 91.7019 19.8995C90.5157 20.9906 88.9653 21.598 87.355 21.6027M90.2149 15.1389C90.2158 14.5753 90.0497 14.0242 89.7378 13.5552C89.4259 13.0861 88.9821 12.7204 88.4626 12.5041C87.9432 12.2879 87.3713 12.2309 86.8195 12.3403C86.2677 12.4497 85.7607 12.7207 85.3626 13.119C84.9646 13.5172 84.6934 14.0248 84.5833 14.5775C84.4733 15.1302 84.5293 15.7032 84.7444 16.224C84.9595 16.7447 85.3239 17.1899 85.7916 17.5031C86.2593 17.8163 86.8091 17.9835 87.3717 17.9835C87.7449 17.984 88.1145 17.9109 88.4594 17.7682C88.8044 17.6254 89.1178 17.416 89.3819 17.1518C89.646 16.8876 89.8555 16.5739 89.9984 16.2285C90.1414 15.8831 90.2149 15.5128 90.2149 15.1389Z" fill="#DF0000"/>
<path d="M106.992 15.1515V20.9822C106.992 21.104 106.944 21.221 106.858 21.3076C106.773 21.3942 106.656 21.4433 106.535 21.4444H103.932C103.671 21.4444 103.479 21.3695 103.479 21.0821C103.479 20.9572 103.305 20.9946 103.143 21.0821C102.332 21.4487 101.451 21.6349 100.561 21.6277C99.5971 21.6285 98.6449 21.4128 97.7749 20.9964C96.9049 20.5801 96.139 19.9736 95.5337 19.2216C94.9285 18.4696 94.4991 17.5913 94.2773 16.6512C94.0554 15.711 94.0467 14.733 94.2518 13.7891C94.4569 12.8452 94.8706 11.9593 95.4624 11.1966C96.0542 10.434 96.8091 9.8139 97.6716 9.38205C98.5341 8.95019 99.4822 8.71752 100.446 8.70115C101.41 8.68478 102.366 8.88513 103.242 9.28746C103.321 9.32494 103.479 9.3416 103.479 9.22499C103.486 9.11892 103.532 9.0193 103.61 8.94652C103.687 8.87374 103.789 8.83331 103.895 8.8335H106.555C106.677 8.83459 106.793 8.88378 106.879 8.97036C106.965 9.05694 107.013 9.1739 107.013 9.29579V15.1473M103.396 15.1473C103.397 14.5853 103.231 14.0358 102.92 13.5681C102.609 13.1005 102.167 12.7358 101.649 12.5202C101.131 12.3045 100.561 12.2477 100.011 12.3568C99.4605 12.466 98.955 12.7361 98.5581 13.1332C98.1612 13.5303 97.8908 14.0364 97.7811 14.5875C97.6714 15.1386 97.7273 15.7099 97.9417 16.2291C98.1562 16.7484 98.5195 17.1922 98.9858 17.5045C99.4521 17.8168 100 17.9835 100.561 17.9835C101.312 17.9824 102.032 17.6834 102.563 17.1518C103.095 16.6203 103.394 15.8996 103.396 15.1473Z" fill="#DF0000"/>
<path d="M117.342 17.717C117.342 19.9743 115.21 21.611 112.4 21.611C111.531 21.5955 110.674 21.3969 109.886 21.0281C109.099 20.6593 108.397 20.1286 107.827 19.4703C107.785 19.4256 107.751 19.3727 107.73 19.3147C107.708 19.2567 107.698 19.1949 107.701 19.133C107.703 19.0711 107.719 19.0104 107.745 18.9546C107.772 18.8987 107.81 18.8489 107.857 18.8081L109.627 17.2422C109.712 17.1619 109.825 17.1172 109.941 17.1172C110.058 17.1172 110.17 17.1619 110.255 17.2422C110.999 18.0127 111.639 18.3167 112.4 18.3167C113.231 18.3167 113.967 17.9793 113.967 17.7045C113.967 17.3463 113.136 16.9215 112.142 16.7549C109.781 16.3384 108.26 14.7891 108.26 12.7692C108.291 11.6622 108.753 10.6112 109.546 9.84024C110.34 9.06928 111.403 8.6393 112.508 8.64192C114.682 8.64192 115.792 9.40407 116.894 10.8201C116.933 10.8688 116.961 10.9249 116.978 10.985C116.995 11.0451 116.999 11.108 116.991 11.1699C116.983 11.2318 116.962 11.2913 116.931 11.345C116.899 11.3987 116.857 11.4454 116.806 11.4823L114.898 12.9025C114.8 12.9716 114.68 13.0001 114.561 12.9823C114.443 12.9645 114.336 12.9016 114.262 12.8067C113.651 12.0237 113.364 11.9529 112.508 11.9529C112.275 11.9579 112.051 12.0436 111.873 12.1954C111.696 12.3472 111.577 12.5559 111.535 12.7859C111.535 13.294 112.417 13.4856 112.687 13.5314C115.572 13.9978 117.342 15.6138 117.342 17.7211" fill="#DF0000"/>
<path d="M128.537 18.8998C128.596 18.9359 128.647 18.985 128.685 19.0434C128.723 19.1018 128.748 19.1679 128.757 19.2371C128.766 19.3062 128.76 19.3765 128.738 19.4428C128.717 19.5091 128.681 19.5698 128.633 19.6203C128.027 20.2497 127.302 20.7504 126.499 21.0925C125.696 21.4346 124.833 21.6109 123.96 21.611C123.046 21.6047 122.144 21.4086 121.31 21.0351C120.476 20.6616 119.728 20.1189 119.113 19.4412L119.072 19.3954C118.252 18.43 117.731 17.2467 117.571 15.9896C117.411 14.7325 117.619 13.4559 118.17 12.3152C118.838 10.9342 119.976 9.8368 121.379 9.21977C122.782 8.60274 124.358 8.50638 125.825 8.94796C127.293 9.38954 128.555 10.3402 129.386 11.6296C130.218 12.9189 130.563 14.4628 130.362 15.9844C130.346 16.0929 130.291 16.1919 130.208 16.2631C130.124 16.3343 130.018 16.3729 129.909 16.3717H122.314C122.224 16.3717 122.135 16.3983 122.059 16.4484C121.984 16.4984 121.925 16.5695 121.889 16.653C121.854 16.7365 121.844 16.8285 121.86 16.9178C121.877 17.007 121.919 17.0894 121.982 17.1547C122.2 17.3767 122.454 17.5598 122.734 17.6961C123.193 17.9178 123.702 18.0119 124.21 17.9687C124.717 17.9255 125.204 17.7465 125.619 17.4504C125.691 17.4036 125.776 17.3787 125.862 17.3787C125.948 17.3787 126.033 17.4036 126.105 17.4504L128.537 18.8998ZM122.223 12.9316C122.147 12.9913 122.092 13.0731 122.064 13.1656C122.037 13.2582 122.039 13.3569 122.07 13.4483C122.101 13.5397 122.159 13.6192 122.237 13.6758C122.315 13.7325 122.409 13.7635 122.505 13.7646H125.486C125.585 13.7698 125.683 13.743 125.765 13.6881C125.848 13.6331 125.911 13.553 125.944 13.4595C125.978 13.3661 125.981 13.2643 125.952 13.1692C125.923 13.0741 125.865 12.9908 125.785 12.9316C125.616 12.7908 125.431 12.6719 125.232 12.5776C124.844 12.3866 124.417 12.2882 123.985 12.2903C123.668 12.2899 123.354 12.342 123.054 12.4443C122.752 12.5531 122.471 12.7122 122.223 12.915" fill="#DF0000"/>
<path d="M28.0909 16.0344C28.0135 15.9635 27.9529 15.8763 27.9134 15.7791C27.8738 15.6818 27.8564 15.577 27.8623 15.4721C27.8623 15.2931 27.8623 15.114 27.8623 14.9391C27.8623 14.7641 27.8623 14.5809 27.8623 14.4018C27.8577 14.297 27.8767 14.1924 27.9177 14.0959C27.9586 13.9993 28.0207 13.9132 28.0992 13.8437L29.1384 12.9025C29.2302 12.8177 29.299 12.7109 29.3383 12.5921C29.3776 12.4734 29.386 12.3466 29.3629 12.2236V12.1445C29.2454 11.5342 29.0899 10.9319 28.8973 10.3411C28.7058 9.75013 28.4782 9.17152 28.2156 8.60859L28.1782 8.53363C28.1262 8.42074 28.0462 8.32314 27.9457 8.25021C27.8453 8.17727 27.7278 8.13145 27.6045 8.11715L26.1912 7.95889C26.0865 7.94633 25.9857 7.91161 25.8954 7.85704C25.8051 7.80247 25.7274 7.7293 25.6674 7.64237C25.4721 7.34667 25.2518 7.0593 25.0398 6.77609C24.976 6.69306 24.9308 6.59731 24.9072 6.49529C24.8835 6.39328 24.8819 6.28737 24.9026 6.18469L25.1852 4.78949C25.2125 4.66267 25.2053 4.53084 25.1643 4.40776C25.1234 4.28469 25.0502 4.17488 24.9525 4.08981L24.8943 4.03151C24.4407 3.60673 23.9603 3.21165 23.456 2.84871C22.9553 2.48137 22.4318 2.14613 21.8889 1.845L21.814 1.80335C21.7056 1.74204 21.5832 1.70983 21.4586 1.70983C21.3341 1.70983 21.2117 1.74204 21.1032 1.80335L19.8562 2.50303C19.7647 2.55507 19.663 2.5865 19.5582 2.59513C19.4534 2.60376 19.348 2.58939 19.2493 2.55301C18.9126 2.42807 18.5759 2.31978 18.2308 2.22399C18.1279 2.19326 18.0331 2.13994 17.9533 2.0679C17.8734 1.99586 17.8106 1.90691 17.7694 1.80751L17.1999 0.537257C17.149 0.425694 17.0709 0.328722 16.9729 0.25523C16.8749 0.181739 16.76 0.134077 16.6388 0.116615H16.5556C15.3231 -0.0388717 14.0761 -0.0388717 12.8436 0.116615H12.7646C12.6416 0.131683 12.5244 0.177803 12.4241 0.25065C12.3238 0.323496 12.2435 0.420682 12.191 0.533093L11.5965 1.8325C11.5553 1.9319 11.4925 2.02084 11.4127 2.09288C11.3329 2.16492 11.2381 2.21825 11.1351 2.24898C10.7901 2.34477 10.4534 2.45305 10.1167 2.578C10.018 2.61438 9.91255 2.62875 9.80773 2.62012C9.70292 2.61149 9.60124 2.58006 9.50979 2.52802L8.26273 1.82834C8.15428 1.76703 8.03185 1.73482 7.90732 1.73482C7.78279 1.73482 7.66037 1.76703 7.55191 1.82834L7.48125 1.86999C6.9375 2.17206 6.41275 2.50726 5.90996 2.8737C5.41284 3.23007 4.93807 3.61674 4.48832 4.03151L4.43012 4.08981C4.33878 4.17473 4.27088 4.28185 4.23301 4.40078C4.19514 4.51972 4.18858 4.64645 4.21397 4.76867L4.50079 6.16387C4.52169 6.26681 4.51986 6.37308 4.49545 6.47524C4.47104 6.5774 4.42462 6.67297 4.35946 6.75527C4.13915 7.03847 3.94377 7.32584 3.73177 7.62154C3.67269 7.70836 3.59575 7.78151 3.50614 7.8361C3.41652 7.8907 3.31629 7.92546 3.21217 7.93807L1.79884 8.09633C1.6756 8.11063 1.55811 8.15645 1.45764 8.22938C1.35718 8.30232 1.27714 8.39992 1.2252 8.5128L1.18779 8.58777C0.925215 9.1507 0.697543 9.72931 0.506064 10.3203C0.311539 10.9105 0.156014 11.513 0.0404976 12.1237V12.2028C0.010679 12.3274 0.0141923 12.4577 0.050683 12.5806C0.0871738 12.7034 0.155351 12.8145 0.24834 12.9025L1.30002 13.8437C1.37644 13.9146 1.43676 14.0011 1.47692 14.0974C1.51708 14.1937 1.53614 14.2975 1.5328 14.4018C1.5328 14.5809 1.5328 14.76 1.5328 14.9391C1.5328 15.1181 1.5328 15.2931 1.5328 15.4721C1.53674 15.5771 1.51798 15.6817 1.4778 15.7788C1.43762 15.8758 1.37698 15.963 1.30002 16.0344L0.24834 16.9965C0.153971 17.0788 0.0825316 17.1842 0.0410018 17.3025C-0.000528106 17.4207 -0.0107277 17.5478 0.0113997 17.6711V17.7544C0.137086 18.3684 0.30232 18.9736 0.506064 19.5661C0.698234 20.1569 0.925891 20.7355 1.18779 21.2987L1.2252 21.3736C1.27714 21.4865 1.35718 21.5841 1.45764 21.6571C1.55811 21.73 1.6756 21.7758 1.79884 21.7901L3.21217 21.9484C3.31924 21.9571 3.4231 21.9892 3.51646 22.0425C3.60981 22.0957 3.6904 22.1688 3.75256 22.2566C3.95209 22.5481 4.16824 22.8396 4.38024 23.1187C4.44459 23.2053 4.4888 23.3052 4.50966 23.4111C4.53051 23.517 4.52749 23.6263 4.50079 23.7309L4.21397 25.1261C4.18858 25.2483 4.19514 25.375 4.23301 25.494C4.27088 25.6129 4.33878 25.72 4.43012 25.805L4.48832 25.8633C4.94242 26.2858 5.42131 26.6808 5.92243 27.0461C6.42572 27.4055 6.95046 27.7337 7.49372 28.0289L7.56438 28.0706C7.6731 28.1311 7.79542 28.1629 7.91979 28.1629C8.04417 28.1629 8.16649 28.1311 8.2752 28.0706L9.52226 27.3709C9.61309 27.3174 9.71466 27.2848 9.81962 27.2754C9.92459 27.266 10.0303 27.2802 10.1292 27.3168C10.4659 27.4417 10.8026 27.5542 11.1476 27.65C11.2484 27.6787 11.3418 27.7289 11.4215 27.7972C11.5011 27.8655 11.5651 27.9502 11.609 28.0456L12.1951 29.345C12.2477 29.4574 12.3279 29.5546 12.4283 29.6275C12.5286 29.7003 12.6458 29.7464 12.7688 29.7615H12.8477C14.0802 29.917 15.3273 29.917 16.5598 29.7615H16.6429C16.7652 29.7458 16.8815 29.6993 16.9811 29.6265C17.0806 29.5537 17.1602 29.4569 17.2124 29.345L17.8027 28.0456C17.8473 27.9507 17.9115 27.8664 17.991 27.7982C18.0706 27.73 18.1636 27.6794 18.2641 27.65C18.6091 27.5542 18.9458 27.4417 19.2825 27.3168C19.3814 27.2802 19.4871 27.266 19.5921 27.2754C19.697 27.2848 19.7986 27.3174 19.8894 27.3709L21.1365 28.0706C21.2452 28.1311 21.3675 28.1629 21.4919 28.1629C21.6163 28.1629 21.7386 28.1311 21.8473 28.0706L21.9221 28.0289C22.465 27.7292 22.9885 27.3954 23.4893 27.0294C23.9925 26.6652 24.4729 26.2702 24.9275 25.8466L24.9857 25.7883C25.0767 25.7032 25.144 25.5959 25.1812 25.4769C25.2183 25.3579 25.224 25.2313 25.1977 25.1094L24.886 23.7309C24.865 23.6276 24.8664 23.5209 24.89 23.4182C24.9137 23.3155 24.9591 23.219 25.0231 23.1353C25.2476 22.8563 25.4388 22.5648 25.6508 22.2732C25.7107 22.1863 25.7884 22.1131 25.8787 22.0585C25.969 22.004 26.0699 21.9693 26.1746 21.9567L27.5879 21.7984C27.7111 21.7841 27.8286 21.7383 27.9291 21.6654C28.0296 21.5924 28.1096 21.4948 28.1615 21.382L28.199 21.307C28.4612 20.7411 28.6888 20.1597 28.8807 19.5661C29.0728 18.9752 29.2283 18.3729 29.3462 17.7628V17.6795C29.3691 17.5572 29.3604 17.4311 29.3212 17.313C29.2819 17.195 29.2133 17.0889 29.1218 17.0048L28.0909 16.0344ZM14.6934 24.6305C12.7802 24.6305 10.9101 24.0621 9.31935 22.9972C7.72864 21.9323 6.48883 20.4187 5.75671 18.6478C5.02458 16.8769 4.83303 14.9283 5.20626 13.0483C5.57949 11.1684 6.50076 9.44155 7.85355 8.08617C9.20634 6.7308 10.9299 5.80778 12.8063 5.43384C14.6826 5.05989 16.6276 5.25181 18.3951 5.98534C20.1626 6.71886 21.6733 7.96103 22.7362 9.55478C23.799 11.1485 24.3663 13.0223 24.3663 14.9391C24.3641 17.5087 23.3443 19.9725 21.5308 21.7895C19.7172 23.6065 17.2581 24.6283 14.6934 24.6305Z" fill="#FFBB00"/>
<path d="M14.6934 5.24762C12.7802 5.24762 10.9101 5.81601 9.31935 6.88092C7.72864 7.94583 6.48883 9.45942 5.7567 11.2303C5.02458 13.0012 4.83302 14.9498 5.20625 16.8298C5.57949 18.7097 6.50075 20.4366 7.85354 21.7919C9.20633 23.1473 10.9299 24.0703 12.8063 24.4443C14.6826 24.8182 16.6275 24.6263 18.3951 23.8928C20.1626 23.1593 21.6733 21.9171 22.7361 20.3233C23.799 18.7296 24.3663 16.8558 24.3663 14.9391C24.3652 12.3691 23.3458 9.90465 21.532 8.08739C19.7182 6.27014 17.2585 5.24872 14.6934 5.24762ZM15.4416 22.8438C15.2254 22.8646 15.0259 22.8771 14.789 22.8771H14.6934C14.5063 22.8771 14.3192 22.8771 14.1322 22.8563C12.1012 22.687 10.2142 21.7378 8.86559 20.207C7.51697 18.6761 6.81115 16.6823 6.89569 14.6422C6.98023 12.6021 7.84859 10.6737 9.31923 9.26019C10.7899 7.84665 12.7489 7.05738 14.7869 7.05738C16.8248 7.05738 18.7839 7.84665 20.2546 9.26019C21.7252 10.6737 22.5936 12.6021 22.6781 14.6422C22.7626 16.6823 22.0568 18.6761 20.7082 20.207C19.3596 21.7378 17.4725 22.687 15.4416 22.8563" fill="white"/>
<path d="M14.6934 6.99684C12.6332 6.9872 10.6503 7.78193 9.1652 9.21249C7.68008 10.6431 6.80953 12.5969 6.73816 14.6598C6.66679 16.7227 7.40021 18.7323 8.7829 20.2624C10.1656 21.7926 12.0888 22.723 14.1447 22.8563V21.4195C13.3966 21.4129 12.658 21.2517 11.9751 20.9459C11.2921 20.6401 10.6796 20.1963 10.1758 19.6423C9.67196 19.0883 9.28778 18.436 9.04729 17.7263C8.8068 17.0166 8.71518 16.2648 8.77817 15.518L8.81974 14.9849L9.35181 14.9224C10.4186 14.7997 11.4979 14.9961 12.4536 15.4867C13.4093 15.9773 14.1987 16.7403 14.7225 17.6795C15.2187 16.7282 15.9836 15.9443 16.9217 15.4259C17.8599 14.9074 18.9296 14.6772 19.9975 14.7641L20.5296 14.81L20.5919 15.3431C20.6783 16.0868 20.6107 16.8405 20.3934 17.5569C20.1761 18.2733 19.8137 18.9372 19.3288 19.507C18.8439 20.0768 18.247 20.5404 17.5753 20.8687C16.9037 21.197 16.1716 21.3831 15.425 21.4153V22.8438C17.4152 22.6058 19.2416 21.6212 20.5364 20.0882C21.8313 18.5553 22.4984 16.5878 22.4036 14.5818C22.3087 12.5758 21.4589 10.6803 20.0253 9.27684C18.5916 7.87337 16.6805 7.06615 14.6767 7.01766M10.3411 11.878C10.1681 11.8788 9.99879 11.8281 9.8546 11.7323C9.71042 11.6365 9.59789 11.5 9.5313 11.34C9.46471 11.18 9.44708 11.0038 9.48063 10.8338C9.51418 10.6637 9.5974 10.5075 9.71973 10.3849C9.84207 10.2624 9.99799 10.179 10.1677 10.1454C10.3374 10.1117 10.5133 10.1294 10.673 10.1961C10.8326 10.2628 10.9689 10.3756 11.0645 10.5201C11.1601 10.6645 11.2107 10.8342 11.2099 11.0075C11.2088 11.238 11.1169 11.4588 10.9543 11.6218C10.7916 11.7848 10.5712 11.8769 10.3411 11.878ZM14.6934 10.0455C14.5205 10.0455 14.3516 9.99405 14.2079 9.89776C14.0643 9.80147 13.9524 9.66463 13.8865 9.50458C13.8205 9.34452 13.8035 9.16846 13.8375 8.99869C13.8715 8.82892 13.9551 8.67309 14.0776 8.55094C14.2001 8.42879 14.356 8.34582 14.5256 8.31255C14.6952 8.27927 14.8709 8.29719 15.0303 8.36402C15.1897 8.43086 15.3258 8.54361 15.4212 8.68798C15.5166 8.83236 15.5671 9.00186 15.5663 9.17501C15.5652 9.40625 15.4727 9.62764 15.3091 9.79076C15.1456 9.95388 14.9242 10.0455 14.6934 10.0455ZM19.0456 11.878C18.8727 11.878 18.7038 11.8266 18.5602 11.7303C18.4165 11.634 18.3046 11.4971 18.2387 11.3371C18.1727 11.177 18.1557 11.001 18.1897 10.8312C18.2237 10.6614 18.3073 10.5056 18.4298 10.3834C18.5523 10.2613 18.7082 10.1783 18.8778 10.145C19.0474 10.1118 19.2231 10.1297 19.3825 10.1965C19.542 10.2634 19.678 10.3761 19.7734 10.5205C19.8688 10.6649 19.9193 10.8344 19.9185 11.0075C19.9185 11.1222 19.8959 11.2357 19.852 11.3416C19.8081 11.4475 19.7437 11.5436 19.6626 11.6245C19.5815 11.7054 19.4852 11.7694 19.3793 11.8129C19.2734 11.8564 19.16 11.8785 19.0456 11.878Z" fill="#FFBB00"/>
<path d="M15.3917 20.0492C15.3527 19.3074 15.1628 18.5814 14.8334 17.9159C14.5041 17.2503 14.0424 16.6593 13.4767 16.1791C12.911 15.6989 12.2533 15.3397 11.5439 15.1236C10.8345 14.9075 10.0886 14.839 9.35181 14.9224L8.81974 14.9849L8.77817 15.518C8.71532 16.2627 8.80622 17.0124 9.0452 17.7204C9.28419 18.4284 9.66614 19.0796 10.1673 19.6332C10.6684 20.1869 11.2779 20.6312 11.9579 20.9385C12.6379 21.2458 13.3738 21.4095 14.1197 21.4194H14.1862C14.35 21.4194 14.5138 21.4111 14.6767 21.3945H14.7723H14.8181L15.3501 21.332L15.3917 20.7989C15.3917 20.6448 15.3917 20.4949 15.3917 20.3408C15.3917 20.1867 15.3917 20.1534 15.3917 20.0576M11.2723 18.8998C10.5528 18.178 10.125 17.2154 10.0709 16.1968C10.5959 16.2072 11.1138 16.3189 11.5965 16.5258C12.303 16.8333 12.9104 17.3314 13.3508 17.9646C13.7912 18.5978 14.0473 19.3412 14.0906 20.1117C13.027 20.0856 12.0138 19.6518 11.2598 18.8998" fill="white"/>
<path d="M14.1031 20.1117C13.0621 20.089 12.0681 19.673 11.3203 18.947C10.5726 18.2209 10.1263 17.2386 10.071 16.1968C10.5959 16.2072 11.1139 16.3189 11.5965 16.5258C12.3031 16.8333 12.9104 17.3315 13.3508 17.9646C13.7912 18.5978 14.0474 19.3412 14.0907 20.1117" fill="#FFBB00"/>
<path d="M20.5919 15.3514L20.5296 14.8183L19.9975 14.7725C19.2594 14.7104 18.5165 14.8 17.8142 15.0359C17.112 15.2718 16.4653 15.649 15.9137 16.1442C15.3622 16.6395 14.9174 17.2425 14.6068 17.9161C14.2962 18.5898 14.1262 19.3199 14.1072 20.0617V20.3741C14.1072 20.524 14.1072 20.6739 14.1405 20.8239L14.2028 21.357L14.6767 21.3986H14.7765C14.9137 21.3986 15.0508 21.3986 15.1922 21.3986H15.425C16.0585 21.3699 16.682 21.2289 17.2664 20.9821C18.3599 20.531 19.2765 19.7344 19.8767 18.7135C20.477 17.6926 20.7281 16.5033 20.5919 15.3264M18.0978 18.8748C17.3773 19.5984 16.4146 20.0287 15.3959 20.0825C15.4235 19.0423 15.8408 18.0506 16.5647 17.3045C17.2886 16.5583 18.2663 16.1124 19.3033 16.0552C19.282 17.1199 18.8499 18.1348 18.0978 18.8873" fill="white"/>
<path d="M19.3199 16.0677C19.2973 17.1107 18.882 18.1066 18.1574 18.8558C17.4327 19.605 16.4523 20.0521 15.4125 20.1076C15.4401 19.0673 15.8574 18.0756 16.5813 17.3295C17.3053 16.5833 18.2829 16.1374 19.3199 16.0802" fill="#FFBB00"/>
<path d="M15.4416 23.2311L14.7931 23.2353L14.1405 23.2436L14.1322 22.8563L14.1197 21.4194L14.1072 20.3782V20.3533V20.1617V20.0659L14.7599 20.0576L15.4042 20.0492H15.4125V20.1075L15.425 21.4153L15.4416 22.8438V23.2311Z" fill="white"/>
<path d="M15.5663 9.17499C15.5663 9.34797 15.5151 9.51706 15.4192 9.66089C15.3233 9.80472 15.1869 9.91682 15.0274 9.98301C14.8679 10.0492 14.6924 10.0665 14.5231 10.0328C14.3537 9.99904 14.1982 9.91574 14.0761 9.79342C13.954 9.67111 13.8709 9.51527 13.8372 9.34561C13.8035 9.17596 13.8208 9.0001 13.8869 8.84029C13.953 8.68048 14.0648 8.54388 14.2084 8.44778C14.3519 8.35168 14.5207 8.30038 14.6934 8.30038C14.9249 8.30038 15.1469 8.39253 15.3106 8.55655C15.4743 8.72057 15.5663 8.94303 15.5663 9.17499Z" fill="white"/>
<path d="M11.21 11.0075C11.21 11.1806 11.1587 11.3499 11.0626 11.4938C10.9665 11.6377 10.8299 11.7498 10.6701 11.8159C10.5104 11.882 10.3347 11.8991 10.1652 11.865C9.99577 11.8309 9.84023 11.7472 9.71832 11.6244C9.5964 11.5017 9.51359 11.3455 9.48038 11.1755C9.44717 11.0056 9.46505 10.8296 9.53176 10.6699C9.59847 10.5102 9.711 10.3739 9.8551 10.2783C9.9992 10.1827 10.1684 10.1321 10.3412 10.1329C10.572 10.134 10.793 10.2266 10.9558 10.3905C11.1186 10.5544 11.21 10.7762 11.21 11.0075Z" fill="white"/>
<path d="M19.9185 11.0075C19.9185 11.1805 19.8673 11.3496 19.7714 11.4934C19.6755 11.6373 19.5392 11.7494 19.3797 11.8155C19.2202 11.8817 19.0446 11.8991 18.8753 11.8653C18.706 11.8316 18.5504 11.7483 18.4283 11.626C18.3063 11.5036 18.2231 11.3478 18.1894 11.1781C18.1558 11.0085 18.173 10.8326 18.2391 10.6728C18.3052 10.513 18.4171 10.3764 18.5606 10.2803C18.7042 10.1842 18.873 10.1329 19.0456 10.1329C19.2771 10.1329 19.4992 10.2251 19.6629 10.3891C19.8266 10.5531 19.9185 10.7756 19.9185 11.0075Z" fill="white"/>
</g>
<defs>
<clipPath id="clip0_754_6801">
<rect width="131" height="30" fill="white"/>
</clipPath>
</defs>
</svg>
