<svg width="162" height="34" viewBox="0 0 162 34" fill="none" xmlns="http://www.w3.org/2000/svg">
<path d="M54.0045 20.7769C54.0045 24.8652 50.6185 28.0491 46.7267 28.0491C44.9442 28.0491 43.4023 27.4013 42.2119 26.3441V27.7863H39.0664V6.00635H42.2119V15.2158C43.4023 14.183 44.9442 13.5352 46.7267 13.5352C50.6185 13.5352 54.0045 16.6825 54.0045 20.7769ZM50.7973 20.7769C50.7973 18.4241 48.8668 16.4808 46.5169 16.4808C44.1671 16.4808 42.2119 18.4241 42.2119 20.7769C42.2119 23.1297 44.1116 25.1036 46.5169 25.1036C48.9223 25.1036 50.7973 23.1602 50.7973 20.7769Z" fill="#005AFF"/>
<path d="M69.775 13.804V27.7863H66.6295V26.344C65.4391 27.4013 63.8972 28.049 62.1148 28.049C58.223 28.049 54.8369 24.8713 54.8369 20.7768C54.8369 16.6824 58.223 13.5352 62.1148 13.5352C63.8972 13.5352 65.4391 14.1829 66.6295 15.2157V13.804H69.775ZM66.6295 20.7768C66.6295 18.424 64.7299 16.4807 62.3245 16.4807C59.9191 16.4807 58.0503 18.424 58.0503 20.7768C58.0503 23.1296 59.9808 25.1035 62.3245 25.1035C64.6682 25.1035 66.6295 23.1602 66.6295 20.7768Z" fill="#005AFF"/>
<path d="M76.4857 25.3113C78.0029 25.3113 78.595 24.6329 78.595 23.9546C78.595 21.394 71.4344 22.8974 71.4344 17.8313C71.4344 15.3868 73.2168 13.5352 76.3623 13.5352C78.5333 13.5352 80.3713 14.1524 81.6233 15.2402L79.9581 17.4768C78.8602 16.7435 77.7624 16.389 76.3623 16.389C74.9623 16.389 74.5182 16.9207 74.5182 17.5685C74.5182 19.9824 81.5863 18.8029 81.5863 23.8385C81.5863 26.3135 79.7422 28.1346 76.2698 28.1346C73.7472 28.1346 72.1128 27.224 70.7744 26.1913L72.4397 23.8079C73.7781 24.9263 75.2891 25.3113 76.4795 25.3113H76.4857Z" fill="#005AFF"/>
<path d="M82.4863 20.8382C82.4863 16.8048 85.7799 13.5415 89.943 13.5415C94.1062 13.5415 97.4306 16.8048 97.4306 20.8382C97.4306 24.8715 94.1309 28.1348 89.943 28.1348C85.7552 28.1348 82.4863 24.8409 82.4863 20.8382ZM94.2172 20.8382C94.2172 18.5098 92.4039 16.5421 89.9369 16.5421C87.4698 16.5421 85.6873 18.5159 85.6873 20.8382C85.6873 23.1604 87.5006 25.1648 89.9369 25.1648C92.3731 25.1648 94.2172 23.1665 94.2172 20.8382Z" fill="#005AFF"/>
<path d="M114.176 20.7769C114.176 24.8652 110.79 28.0491 106.899 28.0491C105.116 28.0491 103.574 27.4013 102.384 26.3441V27.7863H99.2383V6.00635H102.384V15.2158C103.574 14.183 105.116 13.5352 106.899 13.5352C110.79 13.5352 114.176 16.6825 114.176 20.7769ZM110.969 20.7769C110.969 18.4241 109.039 16.4808 106.689 16.4808C104.339 16.4808 102.384 18.4241 102.384 20.7769C102.384 23.1297 104.283 25.1036 106.689 25.1036C109.094 25.1036 110.969 23.1602 110.969 20.7769Z" fill="#005AFF"/>
<path d="M129.947 13.804V27.7863H126.801V26.344C125.611 27.4013 124.069 28.049 122.287 28.049C118.395 28.049 115.009 24.8713 115.009 20.7768C115.009 16.6824 118.395 13.5352 122.287 13.5352C124.069 13.5352 125.611 14.1829 126.801 15.2157V13.804H129.947ZM126.801 20.7768C126.801 18.424 124.902 16.4807 122.496 16.4807C120.091 16.4807 118.222 18.424 118.222 20.7768C118.222 23.1296 120.153 25.1035 122.496 25.1035C124.84 25.1035 126.801 23.1602 126.801 20.7768Z" fill="#005AFF"/>
<path d="M146.106 13.804V27.7863H142.961V26.344C141.77 27.4013 140.228 28.049 138.446 28.049C134.554 28.049 131.168 24.8713 131.168 20.7768C131.168 16.6824 134.554 13.5352 138.446 13.5352C140.228 13.5352 141.77 14.1829 142.961 15.2157V13.804H146.106ZM142.961 20.7768C142.961 18.424 141.061 16.4807 138.656 16.4807C136.25 16.4807 134.381 18.424 134.381 20.7768C134.381 23.1296 136.312 25.1035 138.656 25.1035C140.999 25.1035 142.961 23.1602 142.961 20.7768Z" fill="#005AFF"/>
<path d="M152.817 25.3113C154.334 25.3113 154.926 24.6329 154.926 23.9546C154.926 21.394 147.765 22.8974 147.765 17.8313C147.765 15.3868 149.548 13.5352 152.693 13.5352C154.864 13.5352 156.702 14.1524 157.954 15.2402L156.289 17.4768C155.191 16.7435 154.093 16.389 152.693 16.389C151.293 16.389 150.849 16.9207 150.849 17.5685C150.849 19.9824 157.917 18.8029 157.917 23.8385C157.917 26.3135 156.073 28.1346 152.601 28.1346C150.078 28.1346 148.444 27.224 147.105 26.1913L148.771 23.8079C150.109 24.9263 151.62 25.3113 152.811 25.3113H152.817Z" fill="#005AFF"/>
<path d="M162 26.2339C162 27.1445 161.285 27.8412 160.378 27.8412C159.471 27.8412 158.756 27.1445 158.756 26.2339C158.756 25.3234 159.44 24.6206 160.378 24.6206C161.315 24.6206 162 25.3478 162 26.2339ZM161.611 26.2339C161.611 25.5373 161.1 24.9873 160.378 24.9873C159.656 24.9873 159.144 25.5373 159.144 26.2339C159.144 26.9306 159.681 27.4623 160.378 27.4623C161.075 27.4623 161.611 26.9428 161.611 26.2339ZM160.76 26.3989L161.124 27.0528H160.674L160.366 26.4539H160.205V27.0528H159.774V25.3723H160.458C160.865 25.3723 161.093 25.5862 161.093 25.9101C161.093 26.1423 160.976 26.3195 160.76 26.405V26.3989ZM160.205 26.1056H160.433C160.575 26.1056 160.649 26.0384 160.649 25.9223C160.649 25.8062 160.575 25.7389 160.433 25.7389H160.205V26.1056Z" fill="#005AFF"/>
<path d="M16.6527 0.5L0 11.5V28H22.2036V33.5L33.3054 28V11.5L16.6527 0.5ZM30.1599 26.075L25.3553 28.4583V24.8833H3.14551V13.1683L16.6527 4.24611L30.1599 13.1683V26.0689V26.075Z" fill="#005AFF"/>
<path d="M0 11.5002L5.5509 6.00016V2.3335H0V11.5002Z" fill="#005AFF"/>
</svg>
